<svg width="57" height="61" viewBox="0 0 57 61" fill="none" xmlns="http://www.w3.org/2000/svg">
<path fill-rule="evenodd" clip-rule="evenodd" d="M10.394 24.179C10.3529 23.2759 10.6146 22.3848 11.1374 21.6473L24.9304 1.76794C25.3091 1.22235 25.8143 0.776561 26.4028 0.468685C26.9913 0.16081 27.6455 0 28.3097 0C28.9738 0 29.6281 0.16081 30.2166 0.468685C30.8051 0.776561 31.3103 1.22235 31.689 1.76794L45.4783 21.6473C45.6829 21.9406 45.8498 22.2585 45.9751 22.5935C46.6669 22.5471 47.3615 22.571 48.0484 22.6647C49.374 22.8108 50.6538 23.2353 51.804 23.9105C52.7714 24.5184 53.6297 25.2847 54.343 26.1774C55.2027 27.2409 55.822 28.4778 56.1587 29.8032C56.4932 31.2076 56.6485 32.6488 56.6208 34.0922C56.6208 36.065 56.4254 38.2076 55.6618 40.0799C55.9287 40.6256 56.0674 41.2251 56.0674 41.8326C56.0674 42.4401 55.9287 43.0395 55.6618 43.5852C54.8094 45.3936 53.9533 47.1983 53.0936 48.9994L52.9456 49.3081C53.5585 49.6722 54.0661 50.1895 54.4184 50.8093C54.7707 51.429 54.9556 52.1298 54.9549 52.8427V55.5114C54.9552 56.0825 54.8365 56.6473 54.6064 57.17C54.3763 57.6926 54.0398 58.1616 53.6184 58.5471C53.1971 58.9325 52.7 59.226 52.159 59.4087C51.618 59.5915 51.0448 59.6595 50.476 59.6085C47.599 59.3528 44.7403 58.9236 41.9017 58.3993C41.5269 58.3305 41.1632 58.2113 40.8204 58.0449C40.4529 58.0643 40.0844 58.0354 39.7244 57.9591C38.7331 57.7545 37.7394 57.5542 36.7433 57.3581C36.4122 57.2931 36.0902 57.1882 35.7843 57.0458C35.4609 57.0677 35.1361 57.0523 34.8162 57.0001C32.785 56.6804 30.7428 56.4375 28.6896 56.306C28.4932 56.2939 28.2978 56.2676 28.1051 56.2274C27.8826 56.2752 27.6566 56.3052 27.4293 56.3169C26.5671 56.3663 25.7086 56.4521 24.8537 56.58C24.1171 56.6903 23.3645 56.5981 22.6763 56.3133C22.1541 56.8761 21.4836 57.28 20.7419 57.4787C19.7775 57.7472 18.8112 58.0175 17.8522 58.3043C17.5444 58.3981 17.227 58.4563 16.906 58.4779C16.6222 58.6377 16.3206 58.7634 16.0073 58.8523C14.9222 59.1647 13.8354 59.4697 12.7449 59.7656C12.0615 59.9487 11.3426 59.9531 10.657 59.7784C10.0942 60.2237 9.4249 60.5146 8.71531 60.6223C7.61932 60.7922 6.52334 60.9073 5.42735 60.9877C4.86531 61.0319 4.30028 60.9563 3.76967 60.7658C3.23905 60.5753 2.75497 60.2742 2.34946 59.8825C1.93302 59.503 1.60191 59.0394 1.37802 58.5223C1.15413 58.0053 1.04257 57.4466 1.05072 56.8832V45.1927C0.362025 44.448 -0.0140181 43.467 0.000399782 42.4527V28.7529C0.000568547 27.6892 0.412755 26.667 1.15045 25.9007C1.88815 25.1344 2.894 24.6836 3.95691 24.643C5.06141 24.627 6.16332 24.5312 7.25399 24.3562C8.2897 24.1545 9.34904 24.1028 10.3995 24.2028L10.394 24.179Z" fill="#222221"/>
<path fill-rule="evenodd" clip-rule="evenodd" d="M21.4141 34.5396V34.0519C21.6348 33.794 21.7553 33.4653 21.7539 33.1258V30.5868C21.7567 30.2509 21.6358 29.9258 21.4141 29.6735V28.9794C21.6913 28.8589 21.922 28.6519 22.0717 28.3893V34.7936C21.8774 34.6564 21.6508 34.5721 21.4141 34.5488V34.5396ZM19.2222 23.9926H14.5186L28.3079 4.11328L42.099 23.9926H39.4376C38.9227 23.7395 38.3767 23.5553 37.8137 23.4446C36.4054 23.1761 34.9989 23.346 33.8335 24.2228C33.3639 24.571 32.9735 25.0149 32.6882 25.5252L32.6681 25.4832C32.1788 24.476 31.3447 23.6776 30.3172 23.2327C29.3876 22.7932 28.3676 22.5785 27.3398 22.6062C25.9759 22.6773 24.6171 22.8255 23.27 23.0501C22.9568 23.0984 22.6691 23.2508 22.4533 23.4829C22.2376 23.7149 22.1063 24.0129 22.0809 24.3287C21.9885 24.1641 21.8643 24.0194 21.7155 23.9031C21.5449 23.7681 21.3446 23.6756 21.1312 23.633C20.9178 23.5905 20.6974 23.5991 20.488 23.6583C20.0691 23.7692 19.652 23.8824 19.2368 23.9981L19.2222 23.9926ZM35.2034 33.7049V33.7359C35.039 33.5679 34.8929 33.398 34.7651 33.2446L34.7285 33.2007C34.8856 33.3724 35.0464 33.5405 35.2034 33.7049ZM35.2034 40.0068V43.872H33.3768V38.9674C33.9356 39.3953 34.5502 39.745 35.2034 40.0068ZM27.5315 43.872H26.4812C26.083 42.3571 25.683 40.8422 25.2811 39.3273C25.7305 39.2707 26.1798 39.2195 26.631 39.1775C26.9742 39.1452 27.2938 38.9887 27.5297 38.7373V43.872H27.5315ZM32.8014 30.5046C32.7073 30.6896 32.5986 30.8667 32.4763 31.0343C32.1507 31.4694 31.758 31.8499 31.3127 32.1614C31.6269 32.9785 31.9417 33.7938 32.2571 34.6072V34.136C32.257 33.854 32.3412 33.5784 32.4988 33.3445C32.6564 33.1107 32.8803 32.9292 33.1417 32.8234C33.4031 32.7177 33.6902 32.6924 33.966 32.7508C34.2419 32.8092 34.4941 32.9487 34.6902 33.1514C34.2343 32.6686 33.8149 32.1527 33.4353 31.6079C33.199 31.2576 32.9872 30.8914 32.8014 30.5119V30.5046Z" fill="#C20E1A"/>
<path d="M14.8637 54.9013C13.8024 55.2063 12.7429 55.5022 11.6871 55.7817C11.0935 54.5031 10.4925 53.1952 9.90616 51.8928C9.31981 50.5904 8.72067 49.2515 8.13066 47.9071L8.08134 47.918V56.5507C7.10409 56.7023 6.13049 56.8046 5.15872 56.8667V43.1669C6.2547 43.0811 7.35069 42.9569 8.44667 42.7852C9.02754 44.0949 9.61024 45.4009 10.1929 46.6923C10.7756 47.9838 11.3656 49.2496 11.9502 50.5119L12.0031 50.5027V41.9869C12.953 41.7251 13.9053 41.4572 14.86 41.1832V54.9013H14.8637ZM27.1917 52.2106C26.2089 52.2673 25.2262 52.3659 24.2489 52.5102C24.0931 51.81 23.9378 51.1153 23.7832 50.426C22.5684 50.6562 21.3537 50.9283 20.1445 51.2279C19.974 51.9951 19.8041 52.758 19.6349 53.5167C18.643 53.7925 17.6566 54.0647 16.6684 54.3642C17.3308 51.8812 17.9939 49.4037 18.6576 46.9316C19.3207 44.4584 19.9837 41.9997 20.6468 39.5374C21.6624 39.2938 22.6805 39.0746 23.701 38.8798C24.2818 41.0718 24.8645 43.2729 25.4436 45.4904C26.0226 47.708 26.6053 49.9492 27.1917 52.2106ZM23.3557 48.2961C22.949 46.3928 22.5441 44.49 22.141 42.5879H22.0917C21.6216 44.6812 21.154 46.7776 20.6888 48.877C21.5754 48.6639 22.4643 48.4678 23.3557 48.2888V48.2961ZM35.4517 52.9376C33.2835 52.5961 31.1153 52.3403 28.9471 52.207V38.4907C29.9481 38.5437 30.9564 38.6131 31.961 38.7209V49.7593C33.1228 49.903 34.2863 50.0716 35.4517 50.2653V52.9376ZM37.5323 39.6159C38.5351 39.8096 39.5416 40.0141 40.5481 40.2169V53.9313C39.541 53.7231 38.5357 53.5203 37.5323 53.3231V39.6232V39.6159ZM51.9427 41.8408C51.0896 43.6674 50.2421 45.4448 49.3854 47.2203C48.5488 48.9665 47.6866 50.7018 46.839 52.4189C48.1707 52.6015 49.5023 52.7477 50.8375 52.8427V55.5132C48.0976 55.2684 45.3722 54.8574 42.6432 54.3551V53.935C43.4561 52.3202 44.2781 50.7091 45.0873 49.0871C45.8965 47.465 46.7313 45.8174 47.5423 44.1551C46.0499 43.9396 44.5649 43.682 43.078 43.4026V40.7338C46.008 41.268 48.9658 41.6376 51.9372 41.8408H51.9427ZM4.1084 28.7292C5.4121 28.7067 6.71244 28.5895 7.99915 28.3784C11.046 27.8122 12.5493 28.7986 12.5493 31.6664C12.5807 32.8713 12.1597 34.0444 11.3693 34.9544C10.5838 35.8494 9.46594 36.4339 8.01924 36.697C7.7288 36.7481 7.42923 36.781 7.1388 36.8321V42.2207C6.12684 42.3285 5.11488 42.4034 4.1084 42.4344V28.7346V28.7292ZM7.10409 34.6804C7.30319 34.6438 7.50595 34.6128 7.69958 34.5817C7.94328 34.5523 8.17856 34.474 8.39135 34.3516C8.60413 34.2292 8.79007 34.0652 8.93804 33.8693C9.2448 33.425 9.39809 32.8926 9.37461 32.3532C9.37461 31.0052 8.85219 30.4407 7.79091 30.6143C7.5644 30.6508 7.33242 30.6818 7.10409 30.722V34.6804ZM21.2715 38.6259C18.9572 39.2214 16.6446 39.8918 14.3303 40.5786V26.8788C16.4985 26.234 18.6667 25.6111 20.8404 25.0284V27.6734C19.675 27.9778 18.5109 28.2969 17.3479 28.6305V31.418C18.3452 31.1355 19.3426 30.8578 20.3399 30.585V33.1241C19.3426 33.3907 18.3452 33.672 17.3479 33.9588V37.0093C18.6546 36.6343 19.963 36.2817 21.2734 35.9517V38.6241L21.2715 38.6259ZM32.0268 37.9683C31.0057 37.8569 29.9828 37.7856 28.9617 37.7327C28.1543 35.453 27.3494 33.2038 26.5469 30.9851H26.4994V37.7674C25.4929 37.8624 24.4901 37.9939 23.4872 38.1528V24.453C24.7803 24.2344 26.0848 24.0905 27.3944 24.0219C28.2007 24.0031 29 24.1752 29.727 24.5242C30.4524 24.8315 31.0421 25.3908 31.3875 26.0988C31.7081 26.7464 31.8768 27.4586 31.8807 28.1812C31.8807 29.0287 31.698 29.7046 31.3327 30.2033C30.9673 30.7019 30.37 31.1695 29.5553 31.5568C30.3785 33.6806 31.2018 35.8177 32.025 37.9683H32.0268ZM26.4994 30.2197C27.4736 30.1759 28.0825 29.9719 28.326 29.6078C28.5974 29.1862 28.7326 28.6913 28.7133 28.1903C28.7133 26.8842 28.1762 26.212 27.0967 26.234C26.8939 26.234 26.6948 26.2504 26.4975 26.2632V30.2197H26.4994ZM40.1809 29.5749C39.3863 28.4935 38.6319 27.8834 37.9013 27.7482C37.6022 27.6817 37.289 27.7362 37.03 27.8999C36.9144 27.9614 36.8174 28.0529 36.7493 28.1647C36.6812 28.2765 36.6444 28.4046 36.6427 28.5355C36.6427 29.0086 37.0464 29.6553 37.8574 30.4553C38.4965 31.0635 39.0991 31.7088 39.6622 32.3879C40.0218 32.8503 40.3105 33.3638 40.5188 33.9113C40.737 34.4726 40.8474 35.07 40.844 35.6722C40.844 36.8833 40.4513 37.782 39.6676 38.3957C38.884 39.0095 37.8775 39.1958 36.6372 38.9638C35.6362 38.7812 34.6444 38.2533 33.6762 37.3856V34.1415C34.6042 35.2758 35.5394 35.9206 36.4637 36.0905C36.8164 36.178 37.1893 36.1263 37.5049 35.9462C37.6354 35.8707 37.743 35.7612 37.8161 35.6292C37.8891 35.4973 37.9249 35.348 37.9195 35.1973C37.9195 34.7096 37.5652 34.1013 36.851 33.3707C35.7166 32.2034 34.9659 31.3613 34.6151 30.8298C34.2868 30.3494 34.0216 29.8288 33.826 29.2808C33.6539 28.8019 33.5637 28.2973 33.5593 27.7884C33.5593 26.7418 33.9356 25.9271 34.6864 25.3608C35.4371 24.7946 36.3961 24.6302 37.5524 24.8421C38.4328 25.0101 39.3096 25.4503 40.1809 26.1408V29.5804V29.5749ZM42.5282 32.9487C42.5282 31.0271 42.7455 29.6607 43.1675 28.8552C43.5327 28.1032 44.1233 27.4838 44.8571 27.0834C45.5659 26.7052 46.439 26.6011 47.5131 26.7436C48.2655 26.8158 48.9946 27.0441 49.6539 27.414C50.2289 27.7821 50.7388 28.2432 51.1627 28.7785C51.6491 29.3854 51.9976 30.091 52.1838 30.8462C52.429 31.9102 52.5401 33.0006 52.5144 34.0922C52.5144 36.8449 52.0504 38.7392 51.1042 39.7548C50.1909 40.7448 48.9652 41.1832 47.4893 40.9841C45.9787 40.7813 44.7786 40.0141 43.878 38.7592C42.9775 37.5043 42.5282 35.5699 42.5282 32.9469V32.9487ZM45.6992 32.6966V33.5679C45.6992 35.0037 45.7503 35.9572 45.8453 36.4284C45.9281 36.8763 46.1439 37.2888 46.4646 37.6121C46.7699 37.9135 47.166 38.1061 47.5916 38.1601C47.7641 38.1853 47.94 38.175 48.1083 38.1298C48.2767 38.0845 48.434 38.0053 48.5707 37.8971C48.8999 37.6195 49.1205 37.2346 49.1936 36.8102C49.3153 36.2988 49.3762 35.3769 49.3762 34.0447C49.3996 33.1858 49.3489 32.3266 49.2246 31.4764C49.1446 30.9967 48.9356 30.5478 48.62 30.1777C48.3362 29.8462 47.9401 29.6309 47.5076 29.5731C46.8683 29.4854 46.4116 29.6863 46.123 30.185C45.8344 30.6837 45.701 31.5166 45.701 32.7003L45.6992 32.6966Z" fill="white"/>
</svg>
