<svg width="31" height="31" viewBox="0 0 31 31" fill="currentColor" xmlns="http://www.w3.org/2000/svg">
<g>
<path d="M20.2718 16.55C21.059 16.55 21.7518 16.1195 22.1086 15.4685L25.8663 8.654C26.2546 7.961 25.7508 7.1 24.9531 7.1H9.41886L8.43223 5H5V7.1H7.09922L10.8778 15.0695L9.46084 17.6315C8.69463 19.0385 9.70225 20.75 11.2977 20.75H23.893V18.65H11.2977L12.4522 16.55H20.2718ZM10.416 9.2H23.1688L20.2718 14.45H12.9036L10.416 9.2ZM11.2977 21.8C10.1431 21.8 9.20894 22.745 9.20894 23.9C9.20894 25.055 10.1431 26 11.2977 26C12.4522 26 13.3969 25.055 13.3969 23.9C13.3969 22.745 12.4522 21.8 11.2977 21.8ZM21.7938 21.8C20.6392 21.8 19.705 22.745 19.705 23.9C19.705 25.055 20.6392 26 21.7938 26C22.9483 26 23.893 25.055 23.893 23.9C23.893 22.745 22.9483 21.8 21.7938 21.8Z"/>
</g>
<defs>
<filter>

</filter>
</defs>
</svg>
