<svg width="26" height="26" viewBox="0 0 26 26" fill="currentColor" xmlns="http://www.w3.org/2000/svg" >
<g>
<path d="M16.7321 15.3182H15.9907L15.7279 15.065C16.8541 13.7518 17.436 11.9603 17.1169 10.0562C16.6758 7.44869 14.4984 5.36639 11.8705 5.04749C7.90061 4.55974 4.55948 7.89891 5.04751 11.8665C5.36661 14.4928 7.45012 16.6689 10.0592 17.1098C11.9644 17.4287 13.757 16.8471 15.0709 15.7216L15.3243 15.9842V16.7252L19.313 20.7116C19.6978 21.0961 20.3266 21.0961 20.7114 20.7116C21.0962 20.327 21.0962 19.6986 20.7114 19.314L16.7321 15.3182ZM11.101 15.3182C8.76405 15.3182 6.87763 13.4329 6.87763 11.0974C6.87763 8.76184 8.76405 6.87653 11.101 6.87653C13.4379 6.87653 15.3243 8.76184 15.3243 11.0974C15.3243 13.4329 13.4379 15.3182 11.101 15.3182Z"/>
</g>
<defs>
<filter>
</filter>
</defs>
</svg>
